<?xml version="1.0" encoding="UTF-8"?>
<svg xmlns="http://www.w3.org/2000/svg" xmlns:xlink="http://www.w3.org/1999/xlink" width="311pt" height="311pt" viewBox="0 0 311 311" version="1.1">
<g id="surface1">
<path style=" stroke:none;fill-rule:nonzero;fill:rgb(0%,0%,0%);fill-opacity:1;" d="M 140.851562 0.9375 C 118.691406 3.097656 96.625 10.234375 77.28125 21.597656 C 72.492188 24.320312 72.304688 24.601562 72.304688 28.640625 L 72.304688 32.769531 L 78.6875 28.921875 C 128.363281 -1.316406 192.777344 1.125 241.042969 35.023438 C 251.65625 42.441406 268.367188 59.15625 275.789062 69.769531 C 282.453125 79.253906 290.71875 94.933594 294.378906 105.167969 C 310.625 150.710938 303.675781 201.324219 275.789062 241.042969 C 268.367188 251.65625 251.65625 268.367188 241.042969 275.789062 C 192.777344 309.683594 128.363281 312.125 78.6875 281.890625 L 72.304688 278.039062 L 72.304688 282.171875 C 72.304688 286.210938 72.492188 286.492188 77.28125 289.214844 C 132.398438 321.328125 201.042969 316.726562 251.183594 277.476562 C 259.730469 270.714844 272.78125 257.570312 278.980469 249.308594 C 301.890625 218.976562 313.347656 179.726562 310.0625 143.292969 C 308.652344 128.082031 306.867188 119.628906 302.359375 106.015625 C 294.847656 83.382812 283.769531 65.261719 266.773438 47.515625 C 233.90625 13.617188 187.425781 -3.664062 140.851562 0.9375 Z M 140.851562 0.9375 "/>
<path style=" stroke:none;fill-rule:nonzero;fill:rgb(0%,0%,0%);fill-opacity:1;" d="M 144.984375 29.109375 C 98.878906 33.992188 62.445312 58.3125 43.195312 97.1875 C 32.675781 118.316406 28.734375 134.277344 28.734375 155.40625 C 28.734375 170.992188 30.234375 180.570312 34.835938 194.9375 C 37.84375 204.328125 46.574219 222.261719 48.921875 223.765625 C 49.957031 224.421875 54.839844 222.074219 68.171875 214.65625 C 77.9375 209.210938 86.484375 204.703125 87.046875 204.703125 C 87.609375 204.703125 102.539062 213.25 120.289062 223.671875 C 138.035156 234.09375 153.433594 242.734375 154.46875 242.828125 C 155.59375 243.015625 172.214844 234.09375 193.90625 221.792969 L 231.464844 200.480469 L 231.746094 159.914062 L 231.933594 119.441406 L 241.699219 113.714844 C 247.148438 110.519531 252.125 107.984375 252.875 107.984375 C 254.566406 107.984375 259.355469 120.003906 262.078125 130.710938 C 264.519531 140.664062 265.457031 159.164062 263.957031 170.429688 C 262.640625 180.289062 257.945312 195.03125 252.96875 204.890625 C 229.777344 251.089844 177.472656 274.753906 127.988281 261.515625 C 112.679688 257.476562 93.902344 247.335938 82.632812 237.101562 C 75.121094 230.246094 76.058594 230.433594 68.171875 234.753906 C 64.226562 236.914062 61.035156 239.070312 61.035156 239.636719 C 61.035156 241.042969 71.269531 250.621094 79.253906 256.820312 C 94.371094 268.367188 114.183594 277.007812 133.339844 280.292969 C 145.359375 282.453125 166.863281 282.453125 177.847656 280.386719 C 203.859375 275.410156 225.457031 263.957031 244.238281 245.175781 C 255.035156 234.375 261.328125 225.738281 267.804688 212.6875 C 277.289062 193.8125 280.671875 180.570312 281.421875 160.007812 C 281.984375 143.199219 280.574219 131.460938 276.445312 118.410156 C 273.910156 110.519531 262.734375 87.234375 260.574219 85.449219 C 259.542969 84.605469 256.160156 86.105469 243.015625 93.429688 C 234.09375 98.503906 225.457031 103.292969 223.953125 104.324219 C 221.136719 106.015625 221.042969 106.015625 216.910156 103.386719 C 214.5625 101.976562 200.007812 93.242188 184.515625 84.136719 C 160.851562 70.144531 156.15625 67.609375 154.46875 68.359375 C 149.492188 70.613281 80.191406 110.238281 79.628906 111.179688 C 79.253906 111.742188 78.875 129.582031 78.875 150.804688 L 78.875 189.398438 L 68.171875 195.125 C 62.257812 198.320312 56.996094 200.949219 56.527344 200.949219 C 55.214844 200.949219 52.019531 193.058594 49.203125 182.917969 C 45.917969 171.179688 44.980469 149.207031 47.324219 136.8125 C 57.1875 84.324219 102.445312 46.011719 154.65625 46.011719 C 181.792969 46.011719 208.273438 55.964844 227.804688 73.617188 C 230.527344 75.964844 233.15625 77.9375 233.8125 77.9375 C 235.410156 77.9375 247.898438 70.519531 247.898438 69.582031 C 247.898438 68.359375 238.039062 59.535156 230.527344 53.992188 C 210.714844 39.4375 190.808594 31.457031 167.988281 29.109375 C 157.566406 28.078125 154.9375 28.078125 144.984375 29.109375 Z M 179.351562 100.945312 C 191.652344 108.175781 201.699219 114.371094 201.605469 114.746094 C 201.511719 115.121094 190.996094 120.570312 178.316406 126.859375 L 155.21875 138.222656 L 131.835938 127.234375 C 118.972656 121.226562 108.078125 115.96875 107.703125 115.5 C 106.953125 114.839844 154.84375 87.140625 156.0625 87.609375 C 156.53125 87.703125 166.957031 93.714844 179.351562 100.945312 Z M 214.84375 159.351562 L 214.5625 190.148438 L 189.679688 204.421875 C 176.0625 212.214844 164.515625 218.414062 164.140625 218.226562 C 163.761719 217.945312 163.386719 203.484375 163.386719 186.019531 C 163.386719 160.570312 163.667969 153.996094 164.609375 153.152344 C 166.203125 151.835938 213.25 128.644531 214.28125 128.644531 C 214.75 128.644531 214.9375 142.449219 214.84375 159.351562 Z M 128.175781 144.417969 L 146.015625 152.777344 L 146.296875 185.828125 L 146.484375 218.976562 L 143.480469 217.097656 C 141.789062 216.066406 130.898438 209.679688 119.253906 202.824219 C 107.609375 196.066406 97.5625 189.867188 97 189.023438 C 95.683594 187.238281 95.308594 153.808594 96.34375 138.316406 L 97 129.863281 L 103.667969 132.964844 C 107.328125 134.652344 118.410156 139.820312 128.175781 144.417969 Z M 128.175781 144.417969 "/>
</g>
</svg>
