<?xml version="1.0" standalone="no"?>
<!DOCTYPE svg PUBLIC "-//W3C//DTD SVG 20010904//EN"
 "http://www.w3.org/TR/2001/REC-SVG-20010904/DTD/svg10.dtd">
<svg version="1.0" xmlns="http://www.w3.org/2000/svg"
 width="331.000000pt" height="331.000000pt" viewBox="0 0 331.000000 331.000000"
 preserveAspectRatio="xMidYMid meet">
<metadata>
Created by potrace 1.15, written by Peter Selinger 2001-2017
</metadata>
<g transform="translate(0.000000,331.000000) scale(0.100000,-0.100000)"
fill="#000000" stroke="none">
<path d="M1500 3300 c-236 -23 -471 -99 -677 -220 -51 -29 -53 -32 -53 -75 l0
-44 68 41 c529 322 1215 296 1729 -65 113 -79 291 -257 370 -370 71 -101 159
-268 198 -377 173 -485 99 -1024 -198 -1447 -79 -113 -257 -291 -370 -370
-514 -361 -1200 -387 -1729 -65 l-68 41 0 -44 c0 -43 2 -46 53 -75 587 -342
1318 -293 1852 125 91 72 230 212 296 300 244 323 366 741 331 1129 -15 162
-34 252 -82 397 -80 241 -198 434 -379 623 -350 361 -845 545 -1341 496z"/>
<path d="M1544 3000 c-491 -52 -879 -311 -1084 -725 -112 -225 -154 -395 -154
-620 0 -166 16 -268 65 -421 32 -100 125 -291 150 -307 11 -7 63 18 205 97
104 58 195 106 201 106 6 0 165 -91 354 -202 189 -111 353 -203 364 -204 12
-2 189 93 420 224 l400 227 3 432 2 431 104 61 c58 34 111 61 119 61 18 0 69
-128 98 -242 26 -106 36 -303 20 -423 -14 -105 -64 -262 -117 -367 -247 -492
-804 -744 -1331 -603 -163 43 -363 151 -483 260 -80 73 -70 71 -154 25 -42
-23 -76 -46 -76 -52 0 -15 109 -117 194 -183 161 -123 372 -215 576 -250 128
-23 357 -23 474 -1 277 53 507 175 707 375 115 115 182 207 251 346 101 201
137 342 145 561 6 179 -9 304 -53 443 -27 84 -146 332 -169 351 -11 9 -47 -7
-187 -85 -95 -54 -187 -105 -203 -116 -30 -18 -31 -18 -75 10 -25 15 -180 108
-345 205 -252 149 -302 176 -320 168 -53 -24 -791 -446 -797 -456 -4 -6 -8
-196 -8 -422 l0 -411 -114 -61 c-63 -34 -119 -62 -124 -62 -14 0 -48 84 -78
192 -35 125 -45 359 -20 491 105 559 587 967 1143 967 289 0 571 -106 779
-294 29 -25 57 -46 64 -46 17 0 150 79 150 89 0 13 -105 107 -185 166 -211
155 -423 240 -666 265 -111 11 -139 11 -245 0z m366 -765 c131 -77 238 -143
237 -147 -1 -4 -113 -62 -248 -129 l-246 -121 -249 117 c-137 64 -253 120
-257 125 -8 7 502 302 515 297 5 -1 116 -65 248 -142z m378 -622 l-3 -328
-265 -152 c-145 -83 -268 -149 -272 -147 -4 3 -8 157 -8 343 0 271 3 341 13
350 17 14 518 261 529 261 5 0 7 -147 6 -327z m-923 159 l190 -89 3 -352 2
-353 -32 20 c-18 11 -134 79 -258 152 -124 72 -231 138 -237 147 -14 19 -18
375 -7 540 l7 90 71 -33 c39 -18 157 -73 261 -122z"/>
</g>
</svg>
